<svg width="867" height="48" viewBox="0 0 867 48" fill="none" xmlns="http://www.w3.org/2000/svg">
<g clip-path="url(#clip0_61_51)">
<path d="M21.0727 3.0791C9.4747 3.0791 0.0722656 12.4813 0.0722656 24.0792C0.0722656 35.6777 9.4747 45.0791 21.0727 45.0791C32.6719 45.0791 42.0733 35.6777 42.0733 24.0792C42.0733 12.482 32.6719 3.0801 21.0724 3.0801L21.0727 3.0791ZM30.7033 33.3673C30.3271 33.9842 29.5196 34.1798 28.9028 33.8011C23.9721 30.7894 17.765 30.1073 10.455 31.7774C9.75055 31.9379 9.04839 31.4966 8.8879 30.7919C8.72665 30.0872 9.16625 29.3851 9.87243 29.2246C17.872 27.3969 24.7339 28.1839 30.2695 31.5668C30.8864 31.9454 31.082 32.7504 30.7033 33.3673ZM33.2737 27.6492C32.7997 28.4196 31.7916 28.6628 31.0218 28.1889C25.3769 24.7192 16.7722 23.7144 10.0954 25.7411C9.22945 26.0026 8.31489 25.5146 8.05208 24.6502C7.79127 23.7843 8.27953 22.8715 9.14394 22.6082C16.7707 20.2941 26.2521 21.415 32.7345 25.3985C33.5044 25.8725 33.7477 26.8806 33.2737 27.6495V27.6492ZM33.4944 21.6949C26.726 17.6748 15.5592 17.3051 9.09704 19.2664C8.05935 19.5811 6.96197 18.9953 6.6475 17.9576C6.33303 16.9194 6.91834 15.8228 7.95678 15.5073C15.3749 13.2554 27.7066 13.6905 35.4991 18.3165C36.4344 18.8704 36.7404 20.0759 36.1862 21.008C35.6345 21.9414 34.4257 22.2491 33.4954 21.6949H33.4944ZM57.2074 22.4653C53.5812 21.6006 52.9367 20.9937 52.9367 19.7186C52.9367 18.5139 54.0702 17.7031 55.7579 17.7031C57.3929 17.7031 59.0129 18.3187 60.7132 19.5861C60.7633 19.6245 60.8285 19.6398 60.8912 19.6298C60.9564 19.6203 61.0116 19.5854 61.0492 19.533L62.8196 17.0373C62.8924 16.9345 62.8723 16.7928 62.7745 16.7143C60.7508 15.0911 58.4738 14.3019 55.8106 14.3019C51.896 14.3019 49.1601 16.6514 49.1601 20.013C49.1601 23.6178 51.5199 24.8942 55.5974 25.8795C59.0656 26.6787 59.6524 27.3483 59.6524 28.545C59.6524 29.8716 58.4687 30.6966 56.5629 30.6966C54.4464 30.6966 52.7185 29.9819 50.7876 28.3118C50.74 28.2691 50.6748 28.2516 50.6146 28.2541C50.5494 28.2591 50.4917 28.2892 50.4516 28.3368L48.4655 30.6991C48.3827 30.7994 48.3927 30.9449 48.488 31.0301C50.7349 33.0363 53.4984 34.0945 56.4826 34.0945C60.7006 34.0945 63.4265 31.79 63.4265 28.2215C63.434 25.2105 61.631 23.5428 57.2149 22.4685L57.2074 22.4653ZM72.9709 18.8893C71.1428 18.8893 69.6431 19.6095 68.4043 21.0853V19.4242C68.4043 19.293 68.299 19.1862 68.1686 19.1862H64.9211C64.7907 19.1862 64.6854 19.293 64.6854 19.4242V37.8812C64.6854 38.0116 64.7907 38.1194 64.9211 38.1194H68.1686C68.299 38.1194 68.4043 38.0116 68.4043 37.8812V32.0558C69.6431 33.4425 71.1428 34.1221 72.9709 34.1221C76.3688 34.1221 79.8094 31.5066 79.8094 26.5064C79.8144 21.5053 76.3739 18.889 72.9734 18.889L72.9709 18.8893ZM76.0328 26.5064C76.0328 29.0515 74.4655 30.8295 72.2186 30.8295C69.9992 30.8295 68.3241 28.9713 68.3241 26.5064C68.3241 24.0414 69.9992 22.1836 72.2186 22.1836C74.4279 22.1834 76.0328 24.001 76.0328 26.5062V26.5064ZM88.6241 18.8893C84.2481 18.8893 80.82 22.2586 80.82 26.5609C80.82 30.817 84.2255 34.1497 88.5714 34.1497C92.9624 34.1497 96.4005 30.7919 96.4005 26.5064C96.4005 22.2356 92.985 18.8898 88.6241 18.8898V18.8893ZM88.6241 30.8546C86.2969 30.8546 84.5415 28.9838 84.5415 26.5052C84.5415 24.0153 86.2367 22.2085 88.5714 22.2085C90.9136 22.2085 92.679 24.0785 92.679 26.5596C92.679 29.049 90.9738 30.8546 88.6241 30.8546ZM105.744 19.1862H102.171V15.5334C102.171 15.4025 102.065 15.2957 101.935 15.2957H98.6875C98.5571 15.2957 98.4493 15.4025 98.4493 15.5334V19.1862H96.8895C96.7591 19.1862 96.6538 19.293 96.6538 19.4242V22.2145C96.6538 22.3454 96.7591 22.4525 96.8895 22.4525H98.4493V29.6734C98.4493 32.5899 99.9013 34.0695 102.768 34.0695C103.931 34.0695 104.897 33.8287 105.807 33.3121C105.882 33.272 105.927 33.1918 105.927 33.1065V30.4483C105.927 30.3681 105.885 30.2903 105.814 30.2477C105.744 30.2026 105.656 30.2001 105.584 30.2377C104.959 30.5511 104.355 30.6966 103.678 30.6966C102.637 30.6966 102.171 30.2226 102.171 29.1644V22.4537H105.744C105.875 22.4537 105.98 22.3469 105.98 22.2157V19.4257C105.985 19.2945 105.88 19.1877 105.747 19.1877L105.744 19.1862ZM118.193 19.2005V18.7518C118.193 17.432 118.699 16.8435 119.833 16.8435C120.51 16.8435 121.054 16.9779 121.663 17.181C121.738 17.2046 121.816 17.1928 121.876 17.1479C121.939 17.103 121.974 17.031 121.974 16.9548V14.2189C121.974 14.1143 121.909 14.0218 121.806 13.9909C121.164 13.7996 120.342 13.6032 119.108 13.6032C116.111 13.6032 114.524 15.2919 114.524 18.485V19.1721H112.964C112.834 19.1721 112.726 19.279 112.726 19.4099V22.2145C112.726 22.3454 112.834 22.4525 112.964 22.4525H114.524V33.588C114.524 33.7209 114.632 33.8262 114.762 33.8262H118.007C118.14 33.8262 118.245 33.7209 118.245 33.588V22.4532H121.277L125.921 33.588C125.395 34.7566 124.876 34.9898 124.168 34.9898C123.597 34.9898 122.992 34.8193 122.378 34.4807C122.32 34.4506 122.25 34.4456 122.19 34.4632C122.127 34.4858 122.075 34.5309 122.049 34.5911L120.949 37.006C120.896 37.1214 120.941 37.2543 121.051 37.3145C122.2 37.9364 123.236 38.2022 124.517 38.2022C126.914 38.2022 128.241 37.0837 129.407 34.0795L135.039 19.5255C135.07 19.4522 135.059 19.3695 135.014 19.3045C134.972 19.2401 134.899 19.2012 134.821 19.2012H131.441C131.338 19.2012 131.248 19.2657 131.215 19.3607L127.752 29.2496L123.96 19.3542C123.925 19.2622 123.837 19.2012 123.74 19.2012H118.193V19.2005ZM110.975 19.1862H107.728C107.597 19.1862 107.49 19.293 107.49 19.4242V33.588C107.49 33.7209 107.597 33.8262 107.728 33.8262H110.975C111.106 33.8262 111.214 33.7209 111.214 33.588V19.4252C111.214 19.294 111.108 19.1872 110.975 19.1872V19.1862ZM109.37 12.7366C108.084 12.7366 107.041 13.7778 107.041 15.064C107.041 16.3509 108.084 17.3934 109.37 17.3934C110.657 17.3934 111.698 16.3509 111.698 15.064C111.698 13.778 110.654 12.7366 109.37 12.7366ZM137.813 23.7404C136.529 23.7404 135.528 22.7085 135.528 21.4554C135.528 20.2023 136.542 19.1586 137.826 19.1586C139.109 19.1586 140.11 20.1903 140.11 21.4424C140.11 22.6955 139.097 23.7404 137.813 23.7404ZM137.826 19.3858C136.654 19.3858 135.769 20.3161 135.769 21.4554C135.769 22.5942 136.649 23.512 137.813 23.512C138.984 23.512 139.869 22.5824 139.869 21.4424C139.869 20.3036 138.989 19.3858 137.826 19.3858ZM138.332 21.6773L138.979 22.5821H138.432L137.851 21.7521H137.352V22.5821H136.895V20.1837H137.963C138.523 20.1837 138.889 20.4689 138.889 20.9488C138.891 21.3421 138.663 21.5823 138.335 21.6773H138.332ZM137.946 20.5953H137.352V21.3538H137.946C138.242 21.3538 138.42 21.2086 138.42 20.9742C138.42 20.7274 138.242 20.5953 137.946 20.5953Z" fill="#272D38"/>
</g>
<path d="M292.925 32.4264L294.393 28.9949C296.001 30.1853 298.097 30.8154 300.194 30.8154C301.732 30.8154 302.711 30.2204 302.711 29.3102C302.676 26.789 293.449 28.7498 293.379 22.4112C293.344 19.1897 296.21 16.7036 300.265 16.7036C302.676 16.7036 305.088 17.2991 306.8 18.665L305.428 22.1696C303.852 21.1566 301.907 20.4504 300.055 20.4504C298.797 20.4504 297.957 21.0453 297.957 21.8162C297.993 24.3023 307.289 22.9365 307.394 28.9949C307.394 32.2865 304.598 34.5977 300.614 34.5977C297.678 34.5977 294.987 33.8975 292.925 32.4264H292.925ZM351.383 27.7523C351.013 28.4108 350.473 28.9588 349.821 29.3402C349.169 29.7216 348.427 29.9226 347.671 29.9227C345.317 29.9227 343.408 28.01 343.408 25.6507C343.408 23.2914 345.317 21.3786 347.671 21.3786C348.427 21.3787 349.169 21.5797 349.821 21.9611C350.473 22.3425 351.013 22.8905 351.383 23.549L355.465 21.2834C353.936 18.5512 351.02 16.7036 347.671 16.7036C342.74 16.7036 338.742 20.709 338.742 25.6507C338.742 30.5918 342.74 34.5977 347.671 34.5977C351.02 34.5977 353.936 32.7502 355.465 30.0179L351.383 27.7523ZM310.043 34.2473H315.145V9.25577H310.043L310.043 34.2473ZM358.042 9.25577V34.2473H363.144V26.7599L369.19 34.2473H375.713L368.024 25.3524L375.153 17.0525H368.911L363.144 23.953V9.25577H358.042ZM330.866 17.0535V19.085C330.027 17.684 327.965 16.7036 325.798 16.7036C321.325 16.7036 317.795 20.6609 317.795 25.6331C317.795 30.6054 321.325 34.5977 325.798 34.5977C327.965 34.5977 330.027 33.6173 330.866 32.2163V34.2473H335.968V17.0535H330.866ZM330.866 27.7869C330.132 29.0124 328.594 29.9222 326.882 29.9222C324.526 29.9222 322.618 28.01 322.618 25.6507C322.618 23.2914 324.526 21.3786 326.882 21.3786C328.594 21.3786 330.132 22.324 330.866 23.5841V27.7869Z" fill="#272D38"/>
<path d="M265.978 8.70361C264.325 8.70361 262.984 10.0469 262.984 11.7035C262.984 12.0971 263.061 12.4868 263.211 12.8506C263.362 13.2143 263.582 13.5449 263.86 13.8235C264.138 14.1021 264.468 14.3231 264.832 14.4741C265.195 14.6251 265.585 14.703 265.978 14.7034H268.973V11.7035C268.973 10.9086 268.658 10.1461 268.097 9.58348C267.535 9.0209 266.773 8.70441 265.978 8.70361ZM265.978 16.7033H257.994C256.341 16.7033 255 18.0466 255 19.7037C255 21.3603 256.341 22.7036 257.994 22.7036H265.979C267.632 22.7036 268.973 21.3603 268.973 19.7037C268.973 18.0466 267.632 16.7033 265.978 16.7033Z" fill="#272D38"/>
<path d="M284.941 19.7037C284.941 18.0466 283.6 16.7033 281.947 16.7033C280.293 16.7033 278.953 18.0466 278.953 19.7037V22.7036H281.947C282.742 22.7028 283.504 22.3863 284.065 21.8237C284.627 21.2612 284.942 20.4986 284.941 19.7037ZM276.957 19.7037V11.7035C276.958 10.9086 276.643 10.1461 276.081 9.58348C275.519 9.0209 274.757 8.70441 273.963 8.70361C272.309 8.70361 270.969 10.0469 270.969 11.7035V19.7032C270.969 21.3608 272.309 22.7041 273.963 22.7041C274.757 22.7033 275.519 22.3868 276.081 21.8242C276.643 21.2617 276.958 20.4991 276.957 19.7042" fill="#272D38"/>
<path d="M273.963 38.7036C274.757 38.7028 275.52 38.3863 276.081 37.8237C276.643 37.2612 276.958 36.4986 276.957 35.7037C276.958 34.9088 276.643 34.1463 276.081 33.5837C275.52 33.0211 274.757 32.7046 273.963 32.7038H270.969V35.7037C270.969 37.3603 272.309 38.7036 273.963 38.7036ZM273.963 30.7039H281.947C283.6 30.7039 284.941 29.3606 284.941 27.7035C284.942 26.9086 284.627 26.1461 284.065 25.5835C283.504 25.0209 282.742 24.7044 281.947 24.7036H273.963C272.309 24.7036 270.969 26.0469 270.969 27.7035C270.968 28.0971 271.045 28.4868 271.196 28.8506C271.346 29.2143 271.566 29.5449 271.844 29.8235C272.122 30.1021 272.453 30.3231 272.816 30.4741C273.179 30.6251 273.569 30.703 273.963 30.7034" fill="#272D38"/>
<path d="M255 27.7035C255 28.0971 255.077 28.4868 255.227 28.8506C255.377 29.2143 255.598 29.5449 255.876 29.8235C256.154 30.1021 256.484 30.3231 256.847 30.4741C257.211 30.6251 257.6 30.703 257.994 30.7034C258.789 30.7026 259.551 30.3861 260.112 29.8235C260.674 29.261 260.989 28.4984 260.988 27.7035V24.7036H257.994C256.34 24.7036 255 26.0469 255 27.7035ZM262.984 27.7035V35.7032C262.984 37.3603 264.324 38.7036 265.978 38.7036C266.773 38.7028 267.535 38.3863 268.096 37.8237C268.658 37.2612 268.973 36.4986 268.972 35.7037V27.7035C268.973 27.3099 268.896 26.9201 268.745 26.5563C268.595 26.1925 268.375 25.8619 268.097 25.5833C267.819 25.3048 267.488 25.0837 267.125 24.9327C266.761 24.7818 266.372 24.7039 265.978 24.7036C264.324 24.7036 262.984 26.0469 262.984 27.7035Z" fill="#272D38"/>
<path d="M536.05 14.0131H543.672C548.532 14.0131 552.546 16.8247 552.546 23.2442V24.5931C552.546 31.0613 548.792 33.9704 543.819 33.9704H536.05V14.0131ZM540.308 17.6373V30.33H543.575C546.338 30.33 548.19 28.526 548.19 24.5118V23.4555C548.19 19.4412 546.24 17.6373 543.429 17.6373H540.308ZM554.805 17.8323H558.218L558.77 21.5865C559.421 19.0349 561.078 17.6698 564.085 17.6698H565.141V21.9765H563.386C559.924 21.9765 559.079 23.1792 559.079 26.5921V34.0192H554.87V17.8323H554.805ZM565.986 26.2508V25.7957C565.986 20.3838 569.448 17.426 574.161 17.426C578.972 17.426 582.336 20.3838 582.336 25.7957V26.2508C582.336 31.5652 579.069 34.4255 574.161 34.4255C568.944 34.3767 565.986 31.5814 565.986 26.2508ZM578.029 26.202V25.7957C578.029 22.7891 576.518 20.9852 574.112 20.9852C571.756 20.9852 570.196 22.6429 570.196 25.7957V26.202C570.196 29.1111 571.707 30.7688 574.112 30.7688C576.518 30.7201 578.029 29.1111 578.029 26.202ZM584.546 17.8323H588.056L588.463 20.8877C589.308 18.8399 591.112 17.426 593.777 17.426C597.889 17.426 600.603 20.3838 600.603 25.8607V26.3158C600.603 31.6302 597.596 34.4417 593.777 34.4417C591.226 34.4417 589.47 33.2879 588.609 31.4351V39.6098H584.497L584.546 17.8323ZM596.329 26.202V25.8445C596.329 22.6266 594.671 21.0339 592.461 21.0339C590.104 21.0339 588.544 22.8379 588.544 25.8445V26.1533C588.544 29.0136 590.055 30.8176 592.412 30.8176C594.833 30.7688 596.329 29.2249 596.329 26.202ZM606.827 31.0288L606.47 33.9867H602.862V12.4204H606.974V20.6926C607.884 18.5799 609.688 17.426 612.239 17.426C616.107 17.4748 618.968 20.1401 618.968 25.5032V26.007C618.968 31.3701 616.253 34.4417 612.142 34.4417C609.428 34.3767 607.672 33.1253 606.827 31.0288ZM614.645 26.007V25.6007C614.645 22.6429 613.036 20.9852 610.777 20.9852C608.469 20.9852 606.86 22.8379 606.86 25.6495V26.007C606.86 29.0136 608.42 30.7688 610.728 30.7688C613.198 30.7688 614.645 29.2249 614.645 26.007ZM620.771 26.2508V25.7957C620.771 20.3838 624.233 17.426 628.946 17.426C633.757 17.426 637.121 20.3838 637.121 25.7957V26.2508C637.121 31.5652 633.806 34.4255 628.946 34.4255C623.729 34.3767 620.771 31.5814 620.771 26.2508ZM632.847 26.202V25.7957C632.847 22.7891 631.335 20.9852 628.93 20.9852C626.573 20.9852 625.013 22.6429 625.013 25.7957V26.202C625.013 29.1111 626.525 30.7688 628.93 30.7688C631.351 30.7201 632.847 29.1111 632.847 26.202ZM642.63 25.6007L636.958 17.8323H641.818L645.084 22.6916L648.4 17.8323H653.21L647.457 25.5519L653.519 33.9867H648.757L645.052 28.6236L641.444 33.9867H636.471L642.63 25.6007Z" fill="#272D38"/>
<path d="M509.852 14.0132L500.426 20.0264L509.852 26.0396L500.426 32.0528L491 26.0071L500.426 19.9939L491 14.0132L500.426 8L509.852 14.0132ZM500.377 33.9868L509.803 27.9736L519.23 33.9868L509.803 40L500.377 33.9868ZM509.852 26.0071L519.278 19.9939L509.852 14.0132L519.23 8L528.656 14.0132L519.23 20.0264L528.656 26.0396L519.23 32.0528L509.852 26.0071Z" fill="#272D38"/>
<path fill-rule="evenodd" clip-rule="evenodd" d="M848.707 20.5972C849.081 21.2429 849.204 21.9774 849.244 22.8032L849.297 23.9039V31.6007L849.352 32.7025C849.46 34.502 850.787 35.8325 852.601 35.9457L853.697 36V23.9039L853.751 22.8032C853.796 21.9867 853.917 21.2382 854.297 20.588C854.685 19.921 855.24 19.3677 855.909 18.9835C856.578 18.5993 857.336 18.3978 858.107 18.3992C858.878 18.4006 859.635 18.6049 860.303 18.9915C860.97 19.3781 861.524 19.9335 861.909 20.6018C862.283 21.2475 862.4 21.9959 862.445 22.8032L862.499 23.9005V31.6007L862.553 32.7025C862.666 34.5112 863.983 35.8418 865.802 35.9457L866.898 36V22.8032C866.898 20.4697 865.971 18.2317 864.322 16.5813C862.672 14.9309 860.434 14.0032 858.101 14.0023C856.852 14.001 855.617 14.2662 854.479 14.7803C853.34 15.2944 852.325 16.0454 851.5 16.9833C850.675 16.0458 849.659 15.2949 848.521 14.7807C847.383 14.2665 846.148 14.0007 844.899 14.0012C843.072 14.0012 841.377 14.5555 839.972 15.513C839.115 14.5567 837.198 14.0012 836.097 14.0012V36L837.198 35.9457C839.039 35.8244 840.369 34.5297 840.441 32.7025L840.5 31.6007V23.9039L840.554 22.8032C840.6 21.9728 840.716 21.2429 841.091 20.5926C841.479 19.9261 842.034 19.3728 842.703 18.9882C843.371 18.6035 844.128 18.4009 844.899 18.4005C845.671 18.4006 846.429 18.6037 847.097 18.9893C847.766 19.3748 848.321 19.9294 848.707 20.5972ZM773.399 35.9469L774.5 36H790.999L790.945 34.9028C790.796 33.0941 789.515 31.7728 787.7 31.655L786.6 31.6007H776.701L789.898 18.3993L789.844 17.3032C789.758 15.4761 788.423 14.1559 786.6 14.0554L785.499 14.0058L769 14.0012L769.054 15.1019C769.199 16.8932 770.498 18.2422 772.297 18.3462L773.399 18.4005H783.297L770.101 31.6018L770.155 32.7025C770.264 34.5159 771.572 35.8291 773.399 35.9457V35.9469ZM831.779 17.2212C832.8 18.2426 833.611 19.4552 834.164 20.7898C834.717 22.1244 835.001 23.5548 835.001 24.9994C835.001 26.444 834.717 27.8744 834.164 29.209C833.611 30.5436 832.8 31.7562 831.779 32.7776C829.715 34.8399 826.917 35.9983 823.999 35.9983C821.081 35.9983 818.283 34.8399 816.219 32.7776C811.924 28.4823 811.924 21.5166 816.219 17.2212C817.24 16.2002 818.451 15.3902 819.785 14.8375C821.119 14.2848 822.548 14.0002 823.992 14C825.438 13.999 826.87 14.2831 828.206 14.836C829.542 15.3889 830.756 16.1999 831.779 17.2224V17.2212ZM828.666 20.3362C829.903 21.5744 830.598 23.2531 830.598 25.0035C830.598 26.7538 829.903 28.4326 828.666 29.6707C827.428 30.908 825.749 31.6029 823.999 31.6029C822.248 31.6029 820.57 30.908 819.332 29.6707C818.094 28.4326 817.399 26.7538 817.399 25.0035C817.399 23.2531 818.094 21.5744 819.332 20.3362C820.57 19.099 822.248 18.404 823.999 18.404C825.749 18.404 827.428 19.099 828.666 20.3362ZM800.906 14C802.35 14.0004 803.78 14.2851 805.113 14.8381C806.447 15.391 807.659 16.2012 808.679 17.2224C812.976 21.5166 812.976 28.4834 808.679 32.7776C806.615 34.8399 803.817 35.9983 800.899 35.9983C797.982 35.9983 795.183 34.8399 793.119 32.7776C788.824 28.4823 788.824 21.5166 793.119 17.2212C794.14 16.2002 795.352 15.3902 796.685 14.8375C798.019 14.2848 799.449 14.0002 800.892 14H800.906ZM805.567 20.3339C806.804 21.5721 807.499 23.2511 807.499 25.0017C807.499 26.7524 806.804 28.4314 805.567 29.6696C804.328 30.9068 802.65 31.6018 800.899 31.6018C799.149 31.6018 797.47 30.9068 796.232 29.6696C794.995 28.4314 794.3 26.7527 794.3 25.0023C794.3 23.252 794.995 21.5732 796.232 20.335C797.47 19.0978 799.149 18.4028 800.899 18.4028C802.65 18.4028 804.328 19.0978 805.567 20.335V20.3339Z" fill="#272D38"/>
<defs>
<clipPath id="clip0_61_51">
<rect width="140" height="48" fill="white"/>
</clipPath>
</defs>
</svg>
