<svg width="431" height="44" viewBox="0 0 431 44" fill="none" xmlns="http://www.w3.org/2000/svg">
<g opacity="0.5">
<path d="M308.751 38V29.3809H310.538C311.827 29.3809 312.762 29.4844 313.344 29.6914C314.18 29.9844 314.833 30.4922 315.301 31.2148C315.774 31.9375 316.01 32.7988 316.01 33.7988C316.01 34.6621 315.823 35.4219 315.448 36.0781C315.077 36.7344 314.592 37.2188 313.995 37.5312C313.401 37.8438 312.567 38 311.493 38H308.751ZM309.577 37.1855H310.573C311.764 37.1855 312.59 37.1113 313.051 36.9629C313.7 36.752 314.21 36.373 314.581 35.8262C314.952 35.2754 315.137 34.6035 315.137 33.8105C315.137 32.9785 314.936 32.2676 314.534 31.6777C314.131 31.0879 313.571 30.6836 312.852 30.4648C312.313 30.3008 311.424 30.2188 310.186 30.2188H309.577V37.1855ZM323.153 35.8848L323.844 36.248C323.618 36.6934 323.356 37.0527 323.059 37.3262C322.762 37.5996 322.428 37.8086 322.057 37.9531C321.686 38.0938 321.266 38.1641 320.797 38.1641C319.758 38.1641 318.946 37.8242 318.36 37.1445C317.774 36.4609 317.481 35.6895 317.481 34.8301C317.481 34.0215 317.729 33.3008 318.225 32.668C318.854 31.8633 319.696 31.4609 320.75 31.4609C321.836 31.4609 322.703 31.873 323.352 32.6973C323.813 33.2793 324.047 34.0059 324.055 34.877H318.325C318.34 35.6191 318.576 36.2285 319.034 36.7051C319.491 37.1777 320.055 37.4141 320.727 37.4141C321.051 37.4141 321.366 37.3574 321.67 37.2441C321.979 37.1309 322.241 36.9805 322.455 36.793C322.67 36.6055 322.903 36.3027 323.153 35.8848ZM323.153 34.168C323.043 33.7305 322.883 33.3809 322.672 33.1191C322.465 32.8574 322.19 32.6465 321.846 32.4863C321.502 32.3262 321.141 32.2461 320.762 32.2461C320.137 32.2461 319.6 32.4473 319.151 32.8496C318.823 33.1426 318.575 33.582 318.407 34.168H323.153ZM329.035 32.3223L328.508 32.8672C328.07 32.4414 327.643 32.2285 327.225 32.2285C326.959 32.2285 326.731 32.3164 326.539 32.4922C326.352 32.668 326.258 32.873 326.258 33.1074C326.258 33.3145 326.336 33.5117 326.492 33.6992C326.649 33.8906 326.977 34.1152 327.477 34.373C328.086 34.6895 328.5 34.9941 328.719 35.2871C328.934 35.584 329.041 35.918 329.041 36.2891C329.041 36.8125 328.858 37.2559 328.49 37.6191C328.123 37.9824 327.664 38.1641 327.113 38.1641C326.746 38.1641 326.395 38.084 326.059 37.9238C325.727 37.7637 325.451 37.543 325.233 37.2617L325.748 36.6758C326.166 37.1484 326.609 37.3848 327.078 37.3848C327.406 37.3848 327.686 37.2793 327.916 37.0684C328.147 36.8574 328.262 36.6094 328.262 36.3242C328.262 36.0898 328.186 35.8809 328.033 35.6973C327.881 35.5176 327.537 35.291 327.002 35.0176C326.428 34.7207 326.037 34.4277 325.83 34.1387C325.623 33.8496 325.52 33.5195 325.52 33.1484C325.52 32.6641 325.684 32.2617 326.012 31.9414C326.344 31.6211 326.762 31.4609 327.266 31.4609C327.852 31.4609 328.441 31.748 329.035 32.3223ZM331.021 29C331.209 29 331.369 29.0664 331.502 29.1992C331.635 29.332 331.701 29.4922 331.701 29.6797C331.701 29.8633 331.635 30.0215 331.502 30.1543C331.369 30.2871 331.209 30.3535 331.021 30.3535C330.838 30.3535 330.68 30.2871 330.547 30.1543C330.414 30.0215 330.348 29.8633 330.348 29.6797C330.348 29.4922 330.414 29.332 330.547 29.1992C330.68 29.0664 330.838 29 331.021 29ZM330.611 31.625H331.437V38H330.611V31.625ZM338.867 31.625H339.693V36.7051C339.693 37.5996 339.615 38.2539 339.459 38.668C339.244 39.2539 338.871 39.7051 338.339 40.0215C337.808 40.3379 337.17 40.4961 336.423 40.4961C335.877 40.4961 335.384 40.418 334.947 40.2617C334.513 40.1094 334.16 39.9023 333.886 39.6406C333.613 39.3828 333.361 39.0039 333.13 38.5039H334.021C334.263 38.9258 334.576 39.2383 334.959 39.4414C335.341 39.6445 335.816 39.7461 336.382 39.7461C336.941 39.7461 337.412 39.6406 337.795 39.4297C338.181 39.2227 338.457 38.9609 338.621 38.6445C338.785 38.3281 338.867 37.8184 338.867 37.1152V36.7871C338.558 37.1777 338.181 37.4785 337.736 37.6895C337.291 37.8965 336.818 38 336.318 38C335.732 38 335.181 37.8555 334.666 37.5664C334.15 37.2734 333.752 36.8809 333.47 36.3887C333.189 35.8965 333.048 35.3555 333.048 34.7656C333.048 34.1758 333.195 33.627 333.488 33.1191C333.781 32.6074 334.185 32.2031 334.701 31.9062C335.22 31.6094 335.767 31.4609 336.341 31.4609C336.818 31.4609 337.261 31.5605 337.671 31.7598C338.086 31.9551 338.484 32.2793 338.867 32.7324V31.625ZM336.447 32.252C335.982 32.252 335.55 32.3652 335.152 32.5918C334.754 32.8145 334.441 33.125 334.214 33.5234C333.988 33.918 333.875 34.3457 333.875 34.8066C333.875 35.5059 334.109 36.084 334.578 36.541C335.046 36.998 335.654 37.2266 336.4 37.2266C337.154 37.2266 337.759 37 338.216 36.5469C338.677 36.0938 338.908 35.498 338.908 34.7598C338.908 34.2793 338.802 33.8516 338.591 33.4766C338.38 33.0977 338.082 32.7988 337.695 32.5801C337.308 32.3613 336.892 32.252 336.447 32.252ZM341.691 31.625H342.511V32.7676C342.839 32.3301 343.203 32.0039 343.601 31.7891C343.999 31.5703 344.433 31.4609 344.902 31.4609C345.378 31.4609 345.8 31.582 346.167 31.8242C346.538 32.0664 346.812 32.3926 346.988 32.8027C347.163 33.2129 347.251 33.8516 347.251 34.7188V38H346.437V34.959C346.437 34.2246 346.406 33.7344 346.343 33.4883C346.245 33.0664 346.062 32.75 345.792 32.5391C345.523 32.3242 345.171 32.2168 344.738 32.2168C344.242 32.2168 343.796 32.3809 343.402 32.709C343.011 33.0371 342.753 33.4434 342.628 33.9277C342.55 34.2441 342.511 34.8223 342.511 35.6621V38H341.691V31.625ZM352.876 38V29.1641H353.69V32.7207C354.034 32.2988 354.419 31.9844 354.845 31.7773C355.27 31.5664 355.737 31.4609 356.245 31.4609C357.147 31.4609 357.917 31.7891 358.554 32.4453C359.194 33.0977 359.515 33.8906 359.515 34.8242C359.515 35.7461 359.192 36.5332 358.548 37.1855C357.903 37.8379 357.128 38.1641 356.222 38.1641C355.702 38.1641 355.231 38.0527 354.809 37.8301C354.388 37.6074 354.015 37.2734 353.69 36.8281V38H352.876ZM356.157 37.373C356.614 37.373 357.036 37.2617 357.423 37.0391C357.809 36.8125 358.116 36.4961 358.343 36.0898C358.573 35.6836 358.688 35.2539 358.688 34.8008C358.688 34.3477 358.573 33.916 358.343 33.5059C358.112 33.0957 357.802 32.7773 357.411 32.5508C357.024 32.3203 356.61 32.2051 356.169 32.2051C355.72 32.2051 355.292 32.3203 354.886 32.5508C354.483 32.7773 354.173 33.084 353.954 33.4707C353.739 33.8574 353.632 34.293 353.632 34.7773C353.632 35.5156 353.874 36.1328 354.358 36.6289C354.847 37.125 355.446 37.373 356.157 37.373ZM360.569 31.625H361.436L363.628 36.5352L365.755 31.625H366.628L362.825 40.332H361.958L363.188 37.5195L360.569 31.625ZM375.738 29.1641C377.043 29.1641 378.135 29.5996 379.014 30.4707C379.893 31.3418 380.332 32.4141 380.332 33.6875C380.332 34.9492 379.893 36.0195 379.014 36.8984C378.139 37.7773 377.07 38.2168 375.809 38.2168C374.531 38.2168 373.453 37.7793 372.574 36.9043C371.695 36.0293 371.256 34.9707 371.256 33.7285C371.256 32.9004 371.455 32.1328 371.854 31.4258C372.256 30.7188 372.803 30.166 373.494 29.7676C374.186 29.3652 374.934 29.1641 375.738 29.1641ZM375.779 30.0078C375.143 30.0078 374.539 30.1738 373.969 30.5059C373.399 30.8379 372.953 31.2852 372.633 31.8477C372.313 32.4102 372.153 33.0371 372.153 33.7285C372.153 34.752 372.506 35.6172 373.213 36.3242C373.924 37.0273 374.779 37.3789 375.779 37.3789C376.447 37.3789 377.065 37.2168 377.631 36.8926C378.201 36.5684 378.645 36.125 378.961 35.5625C379.281 35 379.442 34.375 379.442 33.6875C379.442 33.0039 379.281 32.3867 378.961 31.8359C378.645 31.2812 378.197 30.8379 377.619 30.5059C377.041 30.1738 376.428 30.0078 375.779 30.0078ZM382.043 29.1641H382.863V38H382.043V29.1641ZM390.175 35.8848L390.867 36.248C390.64 36.6934 390.379 37.0527 390.082 37.3262C389.785 37.5996 389.451 37.8086 389.08 37.9531C388.709 38.0938 388.289 38.1641 387.82 38.1641C386.781 38.1641 385.968 37.8242 385.382 37.1445C384.797 36.4609 384.504 35.6895 384.504 34.8301C384.504 34.0215 384.752 33.3008 385.248 32.668C385.877 31.8633 386.718 31.4609 387.773 31.4609C388.859 31.4609 389.726 31.873 390.375 32.6973C390.836 33.2793 391.07 34.0059 391.078 34.877H385.347C385.363 35.6191 385.599 36.2285 386.056 36.7051C386.513 37.1777 387.078 37.4141 387.75 37.4141C388.074 37.4141 388.388 37.3574 388.693 37.2441C389.002 37.1309 389.263 36.9805 389.478 36.793C389.693 36.6055 389.925 36.3027 390.175 35.8848ZM390.175 34.168C390.066 33.7305 389.906 33.3809 389.695 33.1191C389.488 32.8574 389.213 32.6465 388.869 32.4863C388.525 32.3262 388.164 32.2461 387.785 32.2461C387.16 32.2461 386.623 32.4473 386.174 32.8496C385.845 33.1426 385.597 33.582 385.429 34.168H390.175ZM398.343 31.625H399.169V36.7051C399.169 37.5996 399.091 38.2539 398.935 38.668C398.72 39.2539 398.347 39.7051 397.816 40.0215C397.285 40.3379 396.646 40.4961 395.9 40.4961C395.353 40.4961 394.861 40.418 394.423 40.2617C393.99 40.1094 393.636 39.9023 393.363 39.6406C393.089 39.3828 392.837 39.0039 392.607 38.5039H393.498C393.74 38.9258 394.052 39.2383 394.435 39.4414C394.818 39.6445 395.292 39.7461 395.859 39.7461C396.417 39.7461 396.888 39.6406 397.271 39.4297C397.658 39.2227 397.933 38.9609 398.097 38.6445C398.261 38.3281 398.343 37.8184 398.343 37.1152V36.7871C398.035 37.1777 397.658 37.4785 397.212 37.6895C396.767 37.8965 396.294 38 395.794 38C395.208 38 394.658 37.8555 394.142 37.5664C393.626 37.2734 393.228 36.8809 392.947 36.3887C392.665 35.8965 392.525 35.3555 392.525 34.7656C392.525 34.1758 392.671 33.627 392.964 33.1191C393.257 32.6074 393.662 32.2031 394.177 31.9062C394.697 31.6094 395.244 31.4609 395.818 31.4609C396.294 31.4609 396.738 31.5605 397.148 31.7598C397.562 31.9551 397.96 32.2793 398.343 32.7324V31.625ZM395.923 32.252C395.458 32.252 395.027 32.3652 394.628 32.5918C394.23 32.8145 393.917 33.125 393.691 33.5234C393.464 33.918 393.351 34.3457 393.351 34.8066C393.351 35.5059 393.585 36.084 394.054 36.541C394.523 36.998 395.13 37.2266 395.876 37.2266C396.63 37.2266 397.236 37 397.693 36.5469C398.154 36.0938 398.384 35.498 398.384 34.7598C398.384 34.2793 398.279 33.8516 398.068 33.4766C397.857 33.0977 397.558 32.7988 397.171 32.5801C396.785 32.3613 396.369 32.252 395.923 32.252ZM404.87 29.3809H405.749V32.6152L409.188 29.3809H410.354L406.212 33.248L410.677 38H409.534L405.749 33.9805V38H404.87V29.3809ZM411.96 31.625H412.786V34.6016C412.786 35.3281 412.825 35.8281 412.903 36.1016C413.02 36.4922 413.243 36.8008 413.571 37.0273C413.903 37.2539 414.298 37.3672 414.755 37.3672C415.212 37.3672 415.598 37.2578 415.915 37.0391C416.235 36.8164 416.456 36.5254 416.577 36.166C416.659 35.9199 416.7 35.3984 416.7 34.6016V31.625H417.538V34.7539C417.538 35.6328 417.434 36.2949 417.227 36.7402C417.024 37.1855 416.716 37.5352 416.301 37.7891C415.891 38.0391 415.376 38.1641 414.755 38.1641C414.134 38.1641 413.614 38.0391 413.196 37.7891C412.782 37.5352 412.471 37.1836 412.264 36.7344C412.061 36.2812 411.96 35.6016 411.96 34.6953V31.625ZM419.483 29.1641H420.303V38H419.483V29.1641ZM422.535 29C422.723 29 422.883 29.0664 423.016 29.1992C423.149 29.332 423.215 29.4922 423.215 29.6797C423.215 29.8633 423.149 30.0215 423.016 30.1543C422.883 30.2871 422.723 30.3535 422.535 30.3535C422.352 30.3535 422.194 30.2871 422.061 30.1543C421.928 30.0215 421.862 29.8633 421.862 29.6797C421.862 29.4922 421.928 29.332 422.061 29.1992C422.194 29.0664 422.352 29 422.535 29ZM422.125 31.625H422.951V38H422.125V31.625ZM424.885 29.1641H425.711V34.1914L428.658 31.625H429.865L426.367 34.666L430.07 38H428.91L425.711 35.1348V38H424.885V29.1641Z" fill="white"/>
<path d="M307.702 39.5H430V40.1973H307.702V39.5Z" fill="white"/>
<path d="M300.315 33.1316C299.694 33.2085 299.062 33.2481 298.421 33.2481C294.149 33.2481 290.27 31.4886 287.407 28.6236C289.153 33.5664 293.066 37.4078 297.938 38.8808C298.809 39.1441 299.711 39.3317 300.636 39.4364C300.754 39.4497 300.872 39.4617 300.991 39.4724L300.995 39.4663C302.256 37.6513 303 35.4167 303 33C303 32.8499 302.997 32.7005 302.991 32.5519C302.128 32.8221 301.233 33.0177 300.315 33.1316Z" fill="white"/>
<path d="M284.684 33C284.684 37.5221 288.183 41.188 292.5 41.188C294.082 41.188 295.555 40.6953 296.786 39.8484C297.76 40.3201 298.816 40.6398 299.924 40.7787C298.024 42.769 295.399 44 292.5 44C286.701 44 282 39.0751 282 33C282 26.9249 286.701 22 292.5 22C297.686 22 301.993 25.9382 302.846 31.1154C302.01 31.4074 301.126 31.592 300.211 31.6537C299.598 27.7713 296.379 24.812 292.5 24.812C288.183 24.812 284.684 28.4779 284.684 33Z" fill="white"/>
</g>
<path d="M208.119 10.8252C208.119 11.7594 207.884 12.6322 207.415 13.4434C206.95 14.25 206.312 14.888 205.501 15.3574C204.69 15.8223 203.817 16.0547 202.883 16.0547C201.949 16.0547 201.076 15.8223 200.265 15.3574C199.453 14.888 198.813 14.25 198.344 13.4434C197.879 12.6322 197.646 11.7594 197.646 10.8252C197.646 9.89551 197.879 9.02734 198.344 8.2207C198.813 7.41406 199.451 6.77832 200.258 6.31348C201.069 5.84408 201.944 5.60938 202.883 5.60938C203.822 5.60938 204.694 5.84408 205.501 6.31348C206.312 6.77832 206.95 7.41406 207.415 8.2207C207.884 9.02734 208.119 9.89551 208.119 10.8252ZM207.039 10.8457C207.039 9.69271 206.633 8.71289 205.822 7.90625C205.016 7.09505 204.038 6.68945 202.89 6.68945C202.142 6.68945 201.445 6.87402 200.798 7.24316C200.155 7.6123 199.649 8.11816 199.28 8.76074C198.911 9.39876 198.727 10.0846 198.727 10.8184C198.727 11.5521 198.911 12.238 199.28 12.876C199.649 13.5094 200.155 14.0107 200.798 14.3799C201.445 14.749 202.138 14.9336 202.876 14.9336C203.619 14.9336 204.314 14.749 204.961 14.3799C205.608 14.0107 206.116 13.5117 206.485 12.8828C206.854 12.2493 207.039 11.5703 207.039 10.8457ZM204.4 11.7891H205.604C205.526 12.3861 205.257 12.8783 204.797 13.2656C204.337 13.653 203.771 13.8467 203.102 13.8467C202.245 13.8467 201.541 13.5596 200.989 12.9854C200.442 12.4066 200.169 11.6569 200.169 10.7363C200.169 9.8431 200.44 9.11849 200.982 8.5625C201.525 8.00651 202.217 7.72852 203.061 7.72852C203.74 7.72852 204.298 7.89941 204.735 8.24121C205.173 8.58301 205.462 9.07975 205.604 9.73145H204.4C204.323 9.39421 204.168 9.13444 203.936 8.95215C203.703 8.76986 203.416 8.67871 203.074 8.67871C202.568 8.67871 202.151 8.86328 201.823 9.23242C201.495 9.59701 201.331 10.0938 201.331 10.7227C201.331 11.3698 201.504 11.8939 201.851 12.2949C202.201 12.6914 202.618 12.8896 203.102 12.8896C203.443 12.8896 203.735 12.7871 203.977 12.582C204.218 12.377 204.359 12.1126 204.4 11.7891ZM214.429 9.18457H212.562C212.613 8.09993 212.952 7.24772 213.581 6.62793C214.215 6.00358 215.026 5.69141 216.015 5.69141C216.625 5.69141 217.163 5.82129 217.628 6.08105C218.097 6.33626 218.471 6.70768 218.749 7.19531C219.032 7.67839 219.173 8.17057 219.173 8.67188C219.173 9.26888 219.002 9.91146 218.66 10.5996C218.323 11.2878 217.703 12.1012 216.801 13.04L215.673 14.2295H219.255V16H212.289V15.084L215.399 11.9121C216.151 11.151 216.65 10.5404 216.896 10.0801C217.147 9.61523 217.272 9.19596 217.272 8.82227C217.272 8.4349 217.143 8.11589 216.883 7.86523C216.628 7.61003 216.297 7.48242 215.892 7.48242C215.481 7.48242 215.14 7.63509 214.866 7.94043C214.593 8.24577 214.447 8.66048 214.429 9.18457ZM223.726 5.69141C224.459 5.69141 225.09 5.87142 225.619 6.23145C226.152 6.59147 226.562 7.1429 226.85 7.88574C227.141 8.62402 227.287 9.65397 227.287 10.9756C227.287 12.3109 227.139 13.3499 226.843 14.0928C226.551 14.8356 226.157 15.3825 225.66 15.7334C225.163 16.0798 224.537 16.2529 223.78 16.2529C223.024 16.2529 222.388 16.0775 221.873 15.7266C221.358 15.3757 220.955 14.8424 220.663 14.127C220.371 13.4115 220.226 12.3929 220.226 11.0713C220.226 9.22559 220.51 7.88802 221.08 7.05859C221.714 6.14714 222.595 5.69141 223.726 5.69141ZM223.773 7.50977C223.45 7.50977 223.163 7.61458 222.912 7.82422C222.661 8.0293 222.47 8.38477 222.338 8.89062C222.206 9.39648 222.14 10.137 222.14 11.1123C222.14 12.3838 222.29 13.2633 222.591 13.751C222.896 14.234 223.29 14.4756 223.773 14.4756C224.238 14.4756 224.607 14.2454 224.881 13.7852C225.214 13.2292 225.38 12.2995 225.38 10.9961C225.38 9.67448 225.229 8.76302 224.929 8.26172C224.632 7.76042 224.247 7.50977 223.773 7.50977ZM230.124 9.18457H228.258C228.308 8.09993 228.647 7.24772 229.276 6.62793C229.91 6.00358 230.721 5.69141 231.71 5.69141C232.321 5.69141 232.858 5.82129 233.323 6.08105C233.793 6.33626 234.166 6.70768 234.444 7.19531C234.727 7.67839 234.868 8.17057 234.868 8.67188C234.868 9.26888 234.697 9.91146 234.355 10.5996C234.018 11.2878 233.398 12.1012 232.496 13.04L231.368 14.2295H234.95V16H227.984V15.084L231.095 11.9121C231.847 11.151 232.346 10.5404 232.592 10.0801C232.842 9.61523 232.968 9.19596 232.968 8.82227C232.968 8.4349 232.838 8.11589 232.578 7.86523C232.323 7.61003 231.993 7.48242 231.587 7.48242C231.177 7.48242 230.835 7.63509 230.562 7.94043C230.288 8.24577 230.142 8.66048 230.124 9.18457ZM237.835 5.94434H240.699V16H238.799V7.74219H236.728L237.835 5.94434ZM247.46 5.94434H253.018V7.83105H251.186V16H249.244V7.83105H247.46V5.94434ZM257.618 8.37109C258.32 8.37109 258.979 8.54655 259.594 8.89746C260.214 9.24837 260.697 9.72461 261.043 10.3262C261.389 10.9277 261.562 11.5771 261.562 12.2744C261.562 12.9762 261.387 13.6325 261.036 14.2432C260.69 14.8538 260.216 15.3324 259.614 15.6787C259.013 16.0205 258.35 16.1914 257.625 16.1914C256.559 16.1914 255.647 15.8132 254.891 15.0566C254.139 14.2956 253.763 13.3727 253.763 12.2881C253.763 11.126 254.189 10.1576 255.041 9.38281C255.788 8.70833 256.647 8.37109 257.618 8.37109ZM257.646 10.1279C257.067 10.1279 256.584 10.3307 256.196 10.7363C255.813 11.1374 255.622 11.6523 255.622 12.2812C255.622 12.9284 255.811 13.4525 256.189 13.8535C256.572 14.2546 257.055 14.4551 257.639 14.4551C258.222 14.4551 258.707 14.2523 259.095 13.8467C259.482 13.4411 259.676 12.9193 259.676 12.2812C259.676 11.6432 259.484 11.126 259.102 10.7295C258.723 10.3285 258.238 10.1279 257.646 10.1279ZM263.107 5.69141H264.974V11.6318L267.722 8.5625H270.06L266.86 12.1309L270.449 16H268.132L264.974 12.5752V16H263.107V5.69141ZM271.215 8.5625H273.074V9.32129C273.498 8.96582 273.881 8.71973 274.223 8.58301C274.569 8.44173 274.922 8.37109 275.282 8.37109C276.021 8.37109 276.647 8.62858 277.162 9.14355C277.595 9.58105 277.812 10.2282 277.812 11.085V16H275.966V12.7393C275.966 11.8506 275.925 11.2604 275.843 10.9688C275.765 10.6771 275.626 10.4561 275.426 10.3057C275.23 10.1507 274.986 10.0732 274.694 10.0732C274.316 10.0732 273.99 10.2008 273.717 10.4561C273.448 10.7067 273.261 11.0553 273.156 11.502C273.102 11.7344 273.074 12.238 273.074 13.0127V16H271.215V8.5625ZM287.074 12.8213H281.079C281.166 13.3499 281.396 13.7715 281.77 14.0859C282.148 14.3958 282.629 14.5508 283.212 14.5508C283.909 14.5508 284.508 14.307 285.01 13.8193L286.582 14.5576C286.19 15.1136 285.721 15.526 285.174 15.7949C284.627 16.0592 283.978 16.1914 283.226 16.1914C282.059 16.1914 281.109 15.8245 280.375 15.0908C279.641 14.3525 279.274 13.4297 279.274 12.3223C279.274 11.1875 279.639 10.2464 280.368 9.49902C281.102 8.74707 282.02 8.37109 283.123 8.37109C284.294 8.37109 285.247 8.74707 285.98 9.49902C286.714 10.2464 287.081 11.2354 287.081 12.4658L287.074 12.8213ZM285.201 11.3516C285.078 10.9368 284.834 10.5996 284.47 10.3398C284.11 10.0801 283.69 9.9502 283.212 9.9502C282.692 9.9502 282.237 10.096 281.845 10.3877C281.599 10.57 281.371 10.8913 281.161 11.3516H285.201ZM288.154 8.5625H289.754V9.49902C289.927 9.12988 290.157 8.84961 290.444 8.6582C290.731 8.4668 291.046 8.37109 291.388 8.37109C291.629 8.37109 291.882 8.4349 292.146 8.5625L291.565 10.1689C291.347 10.0596 291.167 10.0049 291.025 10.0049C290.738 10.0049 290.494 10.1826 290.294 10.5381C290.098 10.8936 290 11.5908 290 12.6299L290.007 12.9922V16H288.154V8.5625ZM297.629 9.60156L296.474 10.7568C296.004 10.292 295.578 10.0596 295.195 10.0596C294.986 10.0596 294.822 10.1051 294.703 10.1963C294.585 10.2829 294.525 10.3923 294.525 10.5244C294.525 10.6247 294.562 10.7181 294.635 10.8047C294.712 10.8867 294.899 11.0007 295.195 11.1465L295.879 11.4883C296.599 11.8438 297.093 12.2061 297.362 12.5752C297.631 12.9443 297.766 13.3773 297.766 13.874C297.766 14.5348 297.522 15.0863 297.034 15.5283C296.551 15.9704 295.902 16.1914 295.086 16.1914C294.001 16.1914 293.135 15.7676 292.488 14.9199L293.637 13.6689C293.855 13.9242 294.111 14.1315 294.402 14.291C294.699 14.446 294.961 14.5234 295.188 14.5234C295.435 14.5234 295.633 14.4642 295.783 14.3457C295.934 14.2272 296.009 14.0905 296.009 13.9355C296.009 13.6484 295.738 13.3682 295.195 13.0947L294.566 12.7803C293.363 12.1742 292.762 11.4154 292.762 10.5039C292.762 9.91602 292.987 9.41471 293.438 9C293.894 8.58073 294.475 8.37109 295.182 8.37109C295.665 8.37109 296.118 8.47819 296.542 8.69238C296.97 8.90202 297.333 9.20508 297.629 9.60156ZM300.261 14.0518C300.557 14.0518 300.81 14.1566 301.02 14.3662C301.229 14.5713 301.334 14.8219 301.334 15.1182C301.334 15.4144 301.229 15.6673 301.02 15.877C300.81 16.0866 300.557 16.1914 300.261 16.1914C299.965 16.1914 299.712 16.0866 299.502 15.877C299.292 15.6673 299.188 15.4144 299.188 15.1182C299.188 14.8219 299.292 14.5713 299.502 14.3662C299.712 14.1566 299.965 14.0518 300.261 14.0518ZM310.357 5.94434H312.299L316.168 16H314.179L313.393 13.9287H309.291L308.471 16H306.481L310.357 5.94434ZM311.342 8.61035L310.002 12.0625H312.675L311.342 8.61035ZM317.255 5.69141H319.121V16H317.255V5.69141ZM320.618 5.69141H322.484V16H320.618V5.69141ZM327.666 8.5625H329.266V9.49902C329.439 9.12988 329.669 8.84961 329.956 8.6582C330.243 8.4668 330.558 8.37109 330.899 8.37109C331.141 8.37109 331.394 8.4349 331.658 8.5625L331.077 10.1689C330.858 10.0596 330.678 10.0049 330.537 10.0049C330.25 10.0049 330.006 10.1826 329.806 10.5381C329.61 10.8936 329.512 11.5908 329.512 12.6299L329.519 12.9922V16H327.666V8.5625ZM333.319 5.5C333.647 5.5 333.928 5.61849 334.16 5.85547C334.397 6.09245 334.516 6.37956 334.516 6.7168C334.516 7.04948 334.399 7.33431 334.167 7.57129C333.935 7.80371 333.657 7.91992 333.333 7.91992C333 7.91992 332.715 7.80143 332.479 7.56445C332.246 7.32292 332.13 7.03125 332.13 6.68945C332.13 6.36133 332.246 6.08105 332.479 5.84863C332.711 5.61621 332.991 5.5 333.319 5.5ZM332.383 8.5625H334.256V16H332.383V8.5625ZM341.447 8.5625H343.307V14.9336C343.307 16.1914 343.054 17.1165 342.548 17.709C341.869 18.5111 340.846 18.9121 339.479 18.9121C338.749 18.9121 338.136 18.821 337.64 18.6387C337.143 18.4564 336.724 18.1875 336.382 17.832C336.04 17.4811 335.787 17.0527 335.623 16.5469H337.681C337.863 16.7565 338.098 16.9137 338.385 17.0186C338.672 17.1279 339.011 17.1826 339.403 17.1826C339.905 17.1826 340.308 17.1051 340.613 16.9502C340.919 16.7952 341.133 16.5947 341.256 16.3486C341.383 16.1025 341.447 15.6787 341.447 15.0771C341.119 15.4053 340.775 15.6423 340.415 15.7881C340.055 15.9294 339.647 16 339.191 16C338.193 16 337.35 15.64 336.662 14.9199C335.974 14.1999 335.63 13.2884 335.63 12.1855C335.63 11.0052 335.994 10.0573 336.724 9.3418C337.384 8.69466 338.173 8.37109 339.089 8.37109C339.517 8.37109 339.921 8.45085 340.299 8.61035C340.682 8.7653 341.064 9.02279 341.447 9.38281V8.5625ZM339.513 10.1143C338.925 10.1143 338.439 10.3125 338.057 10.709C337.674 11.1009 337.482 11.5954 337.482 12.1924C337.482 12.8122 337.678 13.3203 338.07 13.7168C338.462 14.1133 338.954 14.3115 339.547 14.3115C340.126 14.3115 340.602 14.1178 340.976 13.7305C341.354 13.3431 341.543 12.835 341.543 12.2061C341.543 11.5863 341.354 11.0827 340.976 10.6953C340.597 10.3079 340.11 10.1143 339.513 10.1143ZM345.2 5.69141H347.053V9.31445C347.417 9 347.784 8.7653 348.153 8.61035C348.522 8.45085 348.896 8.37109 349.274 8.37109C350.013 8.37109 350.635 8.6263 351.141 9.13672C351.574 9.57878 351.79 10.2282 351.79 11.085V16H349.951V12.7393C349.951 11.8779 349.91 11.2946 349.828 10.9893C349.746 10.6839 349.605 10.4561 349.404 10.3057C349.208 10.1553 348.965 10.0801 348.673 10.0801C348.295 10.0801 347.969 10.2054 347.695 10.4561C347.426 10.7067 347.24 11.0485 347.135 11.4814C347.08 11.7048 347.053 12.2152 347.053 13.0127V16H345.2V5.69141ZM353.827 5.82129H355.687V8.5625H356.794V10.1689H355.687V16H353.827V10.1689H352.87V8.5625H353.827V5.82129ZM362.352 9.60156L361.196 10.7568C360.727 10.292 360.301 10.0596 359.918 10.0596C359.708 10.0596 359.544 10.1051 359.426 10.1963C359.307 10.2829 359.248 10.3923 359.248 10.5244C359.248 10.6247 359.285 10.7181 359.357 10.8047C359.435 10.8867 359.622 11.0007 359.918 11.1465L360.602 11.4883C361.322 11.8438 361.816 12.2061 362.085 12.5752C362.354 12.9443 362.488 13.3773 362.488 13.874C362.488 14.5348 362.244 15.0863 361.757 15.5283C361.274 15.9704 360.624 16.1914 359.809 16.1914C358.724 16.1914 357.858 15.7676 357.211 14.9199L358.359 13.6689C358.578 13.9242 358.833 14.1315 359.125 14.291C359.421 14.446 359.683 14.5234 359.911 14.5234C360.157 14.5234 360.355 14.4642 360.506 14.3457C360.656 14.2272 360.731 14.0905 360.731 13.9355C360.731 13.6484 360.46 13.3682 359.918 13.0947L359.289 12.7803C358.086 12.1742 357.484 11.4154 357.484 10.5039C357.484 9.91602 357.71 9.41471 358.161 9C358.617 8.58073 359.198 8.37109 359.904 8.37109C360.387 8.37109 360.841 8.47819 361.265 8.69238C361.693 8.90202 362.055 9.20508 362.352 9.60156ZM367.451 8.5625H369.051V9.49902C369.224 9.12988 369.454 8.84961 369.741 8.6582C370.028 8.4668 370.343 8.37109 370.685 8.37109C370.926 8.37109 371.179 8.4349 371.443 8.5625L370.862 10.1689C370.644 10.0596 370.464 10.0049 370.322 10.0049C370.035 10.0049 369.791 10.1826 369.591 10.5381C369.395 10.8936 369.297 11.5908 369.297 12.6299L369.304 12.9922V16H367.451V8.5625ZM379.824 12.8213H373.829C373.916 13.3499 374.146 13.7715 374.52 14.0859C374.898 14.3958 375.379 14.5508 375.962 14.5508C376.659 14.5508 377.258 14.307 377.76 13.8193L379.332 14.5576C378.94 15.1136 378.471 15.526 377.924 15.7949C377.377 16.0592 376.728 16.1914 375.976 16.1914C374.809 16.1914 373.859 15.8245 373.125 15.0908C372.391 14.3525 372.024 13.4297 372.024 12.3223C372.024 11.1875 372.389 10.2464 373.118 9.49902C373.852 8.74707 374.77 8.37109 375.873 8.37109C377.044 8.37109 377.997 8.74707 378.73 9.49902C379.464 10.2464 379.831 11.2354 379.831 12.4658L379.824 12.8213ZM377.951 11.3516C377.828 10.9368 377.584 10.5996 377.22 10.3398C376.86 10.0801 376.44 9.9502 375.962 9.9502C375.442 9.9502 374.987 10.096 374.595 10.3877C374.349 10.57 374.121 10.8913 373.911 11.3516H377.951ZM385.895 9.60156L384.739 10.7568C384.27 10.292 383.844 10.0596 383.461 10.0596C383.251 10.0596 383.087 10.1051 382.969 10.1963C382.85 10.2829 382.791 10.3923 382.791 10.5244C382.791 10.6247 382.827 10.7181 382.9 10.8047C382.978 10.8867 383.165 11.0007 383.461 11.1465L384.145 11.4883C384.865 11.8438 385.359 12.2061 385.628 12.5752C385.897 12.9443 386.031 13.3773 386.031 13.874C386.031 14.5348 385.787 15.0863 385.3 15.5283C384.817 15.9704 384.167 16.1914 383.352 16.1914C382.267 16.1914 381.401 15.7676 380.754 14.9199L381.902 13.6689C382.121 13.9242 382.376 14.1315 382.668 14.291C382.964 14.446 383.226 14.5234 383.454 14.5234C383.7 14.5234 383.898 14.4642 384.049 14.3457C384.199 14.2272 384.274 14.0905 384.274 13.9355C384.274 13.6484 384.003 13.3682 383.461 13.0947L382.832 12.7803C381.629 12.1742 381.027 11.4154 381.027 10.5039C381.027 9.91602 381.253 9.41471 381.704 9C382.16 8.58073 382.741 8.37109 383.447 8.37109C383.93 8.37109 384.384 8.47819 384.808 8.69238C385.236 8.90202 385.598 9.20508 385.895 9.60156ZM394.959 12.8213H388.964C389.05 13.3499 389.281 13.7715 389.654 14.0859C390.033 14.3958 390.513 14.5508 391.097 14.5508C391.794 14.5508 392.393 14.307 392.895 13.8193L394.467 14.5576C394.075 15.1136 393.605 15.526 393.059 15.7949C392.512 16.0592 391.862 16.1914 391.11 16.1914C389.944 16.1914 388.993 15.8245 388.26 15.0908C387.526 14.3525 387.159 13.4297 387.159 12.3223C387.159 11.1875 387.524 10.2464 388.253 9.49902C388.987 8.74707 389.905 8.37109 391.008 8.37109C392.179 8.37109 393.132 8.74707 393.865 9.49902C394.599 10.2464 394.966 11.2354 394.966 12.4658L394.959 12.8213ZM393.086 11.3516C392.963 10.9368 392.719 10.5996 392.354 10.3398C391.994 10.0801 391.575 9.9502 391.097 9.9502C390.577 9.9502 390.121 10.096 389.729 10.3877C389.483 10.57 389.256 10.8913 389.046 11.3516H393.086ZM396.039 8.5625H397.639V9.49902C397.812 9.12988 398.042 8.84961 398.329 8.6582C398.616 8.4668 398.931 8.37109 399.272 8.37109C399.514 8.37109 399.767 8.4349 400.031 8.5625L399.45 10.1689C399.231 10.0596 399.051 10.0049 398.91 10.0049C398.623 10.0049 398.379 10.1826 398.179 10.5381C397.983 10.8936 397.885 11.5908 397.885 12.6299L397.892 12.9922V16H396.039V8.5625ZM400.161 8.5625H402.062L403.941 12.9512L405.814 8.5625H407.708L404.543 16H403.333L400.161 8.5625ZM416.26 12.8213H410.265C410.351 13.3499 410.581 13.7715 410.955 14.0859C411.333 14.3958 411.814 14.5508 412.397 14.5508C413.095 14.5508 413.694 14.307 414.195 13.8193L415.768 14.5576C415.376 15.1136 414.906 15.526 414.359 15.7949C413.812 16.0592 413.163 16.1914 412.411 16.1914C411.244 16.1914 410.294 15.8245 409.561 15.0908C408.827 14.3525 408.46 13.4297 408.46 12.3223C408.46 11.1875 408.825 10.2464 409.554 9.49902C410.287 8.74707 411.206 8.37109 412.309 8.37109C413.48 8.37109 414.432 8.74707 415.166 9.49902C415.9 10.2464 416.267 11.2354 416.267 12.4658L416.26 12.8213ZM414.387 11.3516C414.264 10.9368 414.02 10.5996 413.655 10.3398C413.295 10.0801 412.876 9.9502 412.397 9.9502C411.878 9.9502 411.422 10.096 411.03 10.3877C410.784 10.57 410.556 10.8913 410.347 11.3516H414.387ZM423.273 5.69141H425.133V16H423.273V15.2139C422.909 15.5602 422.542 15.8109 422.173 15.9658C421.808 16.1162 421.412 16.1914 420.983 16.1914C420.022 16.1914 419.19 15.82 418.488 15.0771C417.786 14.3298 417.436 13.4023 417.436 12.2949C417.436 11.1465 417.775 10.2054 418.454 9.47168C419.133 8.73796 419.958 8.37109 420.929 8.37109C421.375 8.37109 421.795 8.4554 422.187 8.62402C422.578 8.79264 422.941 9.04557 423.273 9.38281V5.69141ZM421.312 10.0938C420.733 10.0938 420.252 10.2988 419.869 10.709C419.486 11.1146 419.295 11.6364 419.295 12.2744C419.295 12.917 419.489 13.4456 419.876 13.8604C420.268 14.2751 420.749 14.4824 421.318 14.4824C421.906 14.4824 422.394 14.2796 422.781 13.874C423.169 13.4639 423.362 12.9284 423.362 12.2676C423.362 11.6204 423.169 11.0964 422.781 10.6953C422.394 10.2943 421.904 10.0938 421.312 10.0938ZM428.038 14.0518C428.334 14.0518 428.587 14.1566 428.797 14.3662C429.007 14.5713 429.111 14.8219 429.111 15.1182C429.111 15.4144 429.007 15.6673 428.797 15.877C428.587 16.0866 428.334 16.1914 428.038 16.1914C427.742 16.1914 427.489 16.0866 427.279 15.877C427.07 15.6673 426.965 15.4144 426.965 15.1182C426.965 14.8219 427.07 14.5713 427.279 14.3662C427.489 14.1566 427.742 14.0518 428.038 14.0518Z" fill="white"/>
</svg>
