<svg width="350" height="50" viewBox="0 0 350 50" fill="none" xmlns="http://www.w3.org/2000/svg">
<circle opacity="0.05" cx="145" cy="25" r="24" stroke="white" stroke-width="2"/>
<circle opacity="0.05" cx="205" cy="25" r="24" stroke="white" stroke-width="2"/>
<circle opacity="0.05" cx="265" cy="25" r="24" stroke="white" stroke-width="2"/>
<circle opacity="0.05" cx="85" cy="25" r="24" stroke="white" stroke-width="2"/>
<circle opacity="0.05" cx="25" cy="25" r="24" stroke="white" stroke-width="2"/>
<g clip-path="url(#clip0_20_366)">
<path d="M149.167 16.6665H140.834C138.532 16.6665 136.667 18.532 136.667 20.8332V29.1665C136.667 31.4677 138.532 33.3332 140.834 33.3332H149.167C151.468 33.3332 153.334 31.4677 153.334 29.1665V20.8332C153.334 18.532 151.468 16.6665 149.167 16.6665Z" stroke="white" stroke-width="2" stroke-linecap="round" stroke-linejoin="round"/>
<path d="M148.334 24.4753C148.437 25.1688 148.318 25.8771 147.995 26.4994C147.672 27.1218 147.161 27.6264 146.535 27.9416C145.909 28.2569 145.199 28.3666 144.507 28.2552C143.815 28.1438 143.175 27.817 142.679 27.3212C142.184 26.8254 141.857 26.186 141.745 25.4938C141.634 24.8015 141.744 24.0918 142.059 23.4656C142.374 22.8393 142.879 22.3284 143.501 22.0055C144.124 21.6825 144.832 21.5641 145.525 21.6669C146.233 21.7718 146.888 22.1015 147.393 22.6072C147.899 23.1129 148.229 23.7678 148.334 24.4753Z" stroke="white" stroke-width="2" stroke-linecap="round" stroke-linejoin="round"/>
<path d="M149.583 20.4165H149.591" stroke="white" stroke-width="2" stroke-linecap="round" stroke-linejoin="round"/>
</g>
<g clip-path="url(#clip1_20_366)">
<path d="M265 15.417C259.475 15.417 255 19.817 255 25.2437C255 29.5862 257.865 33.2687 261.837 34.567C262.337 34.6595 262.521 34.3553 262.521 34.0945C262.521 33.8612 262.513 33.2428 262.508 32.4237C259.727 33.0162 259.14 31.1053 259.14 31.1053C258.685 29.9712 258.027 29.6678 258.027 29.6678C257.122 29.0587 258.097 29.0712 258.097 29.0712C259.102 29.1395 259.629 30.0837 259.629 30.0837C260.521 31.5862 261.97 31.152 262.542 30.9012C262.632 30.2653 262.889 29.8328 263.175 29.587C260.954 29.3412 258.62 28.4962 258.62 24.7312C258.62 23.6587 259.007 22.782 259.649 22.0945C259.537 21.8462 259.199 20.847 259.737 19.4937C259.737 19.4937 260.574 19.2303 262.487 20.5012C263.287 20.2828 264.137 20.1745 264.987 20.1695C265.837 20.1745 266.687 20.2828 267.487 20.5012C269.387 19.2303 270.224 19.4937 270.224 19.4937C270.762 20.847 270.424 21.8462 270.324 22.0945C270.962 22.782 271.349 23.6587 271.349 24.7312C271.349 28.5062 269.012 29.337 266.787 29.5787C267.137 29.8737 267.462 30.4762 267.462 31.397C267.462 32.712 267.449 33.7687 267.449 34.0878C267.449 34.3453 267.624 34.6528 268.137 34.5545C272.137 33.2645 275 29.5795 275 25.2437C275 19.817 270.522 15.417 265 15.417V15.417Z" fill="white"/>
</g>
<path d="M34.1663 17.5001C33.3683 18.063 32.4848 18.4935 31.5497 18.7751C31.0478 18.198 30.3808 17.789 29.6389 17.6034C28.897 17.4177 28.1159 17.4644 27.4014 17.7371C26.6869 18.0098 26.0734 18.4954 25.6438 19.1282C25.2143 19.7609 24.9894 20.5104 24.9997 21.2751V22.1084C23.5352 22.1464 22.0841 21.8216 20.7755 21.163C19.467 20.5043 18.3416 19.5323 17.4997 18.3334C17.4997 18.3334 14.1663 25.8334 21.6663 29.1667C19.9501 30.3317 17.9056 30.9159 15.833 30.8334C23.333 35.0001 32.4997 30.8334 32.4997 21.2501C32.4989 21.018 32.4766 20.7864 32.433 20.5584C33.2835 19.7197 33.8837 18.6607 34.1663 17.5001V17.5001Z" fill="white"/>
<path d="M82.8478 27.9848L82.517 32.6382C82.9903 32.6382 83.1953 32.4349 83.4412 32.1907L85.6604 30.0698L90.2588 33.4374C91.1022 33.9074 91.6964 33.6599 91.9239 32.6615L94.9423 18.5179L94.9431 18.517C95.2106 17.2703 94.4923 16.7828 93.6706 17.0887L75.9285 23.8813C74.7176 24.3513 74.736 25.0264 75.7227 25.3322L80.2586 26.7431L90.7947 20.1504C91.2905 19.8221 91.7414 20.0037 91.3705 20.3321L82.8478 27.9848Z" fill="white"/>
<circle opacity="0.05" cx="325" cy="25" r="24" stroke="white" stroke-width="2"/>
<g clip-path="url(#clip2_20_366)">
<path d="M332.771 22.757C332.139 22.757 331.583 23.0228 331.174 23.437C329.67 22.3803 327.642 21.7003 325.394 21.6278L326.562 16.2895L330.279 17.1362C330.279 18.0595 331.021 18.8137 331.931 18.8137C332.858 18.8137 333.604 18.0395 333.604 17.1153C333.604 16.1912 332.863 15.417 331.932 15.417C331.282 15.417 330.722 15.8145 330.443 16.3578L326.337 15.4345C326.131 15.3787 325.928 15.5287 325.873 15.7387L324.592 21.6237C322.362 21.7178 320.355 22.397 318.846 23.4545C318.437 23.0228 317.859 22.757 317.227 22.757C314.884 22.757 314.117 25.9478 316.262 27.0387C316.187 27.3762 316.152 27.7362 316.152 28.0953C316.152 31.6795 320.132 34.5837 325.017 34.5837C329.924 34.5837 333.903 31.6795 333.903 28.0953C333.903 27.7362 333.866 27.3595 333.773 27.0212C335.876 25.9262 335.102 22.7587 332.771 22.757V22.757ZM319.667 27.2653C319.667 26.3245 320.409 25.567 321.341 25.567C322.251 25.567 322.993 26.3195 322.993 27.2653C322.993 28.1895 322.252 28.9428 321.341 28.9428C320.413 28.947 319.667 28.1895 319.667 27.2653V27.2653ZM328.7 31.2637C327.166 32.8203 322.837 32.8203 321.302 31.2637C321.132 31.1137 321.132 30.8487 321.302 30.6778C321.449 30.5278 321.711 30.5278 321.858 30.6778C323.03 31.897 326.917 31.9178 328.139 30.6778C328.287 30.5278 328.548 30.5278 328.696 30.6778C328.868 30.8495 328.868 31.1145 328.7 31.2637V31.2637ZM328.666 28.9462C327.756 28.9462 327.014 28.1937 327.014 27.2703C327.014 26.3295 327.756 25.572 328.666 25.572C329.593 25.572 330.339 26.3245 330.339 27.2703C330.335 28.1895 329.593 28.9462 328.666 28.9462Z" fill="white"/>
</g>
<g clip-path="url(#clip3_20_366)">
<path d="M213.404 18.9438L215 17.4172V17.083H209.472L205.532 26.8897L201.049 17.083H195.252V17.4172L197.117 19.6613C197.298 19.8272 197.393 20.0697 197.369 20.3138V29.133C197.427 29.4505 197.323 29.7772 197.1 30.008L195 32.553V32.883H200.954V32.5488L198.854 30.008C198.627 29.7763 198.519 29.4555 198.565 29.133V21.5047L203.792 32.8872H204.399L208.893 21.5047V30.5722C208.893 30.8113 208.893 30.8605 208.737 31.0172L207.12 32.5813V32.9163H214.963V32.5822L213.405 31.0563C213.268 30.953 213.197 30.7797 213.227 30.6113V19.3888C213.197 19.2197 213.267 19.0463 213.404 18.9438V18.9438Z" fill="white"/>
</g>
<defs>
<clipPath id="clip0_20_366">
<rect width="20" height="20" fill="white" transform="translate(135 15)"/>
</clipPath>
<clipPath id="clip1_20_366">
<rect width="20" height="20" fill="white" transform="translate(255 15)"/>
</clipPath>
<clipPath id="clip2_20_366">
<rect width="20" height="20" fill="white" transform="translate(315 15)"/>
</clipPath>
<clipPath id="clip3_20_366">
<rect width="20" height="20" fill="white" transform="translate(195 15)"/>
</clipPath>
</defs>
</svg>
